<svg width="11" height="19" viewBox="0 0 11 19" fill="none" xmlns="http://www.w3.org/2000/svg">
<path d="M2.725 9.48837L10.075 16.8384C10.325 17.0884 10.446 17.38 10.438 17.7134C10.43 18.0467 10.3007 18.3384 10.05 18.5884C9.79933 18.8384 9.50767 18.9634 9.175 18.9634C8.84233 18.9634 8.55067 18.8384 8.3 18.5884L0.6 10.9134C0.4 10.7134 0.25 10.4884 0.15 10.2384C0.0500001 9.98837 0 9.73837 0 9.48837C0 9.23837 0.0500001 8.98837 0.15 8.73837C0.25 8.48837 0.4 8.26337 0.6 8.06337L8.3 0.363372C8.55 0.113372 8.846 -0.00762791 9.188 0.000372093C9.53 0.00837209 9.82567 0.137705 10.075 0.388372C10.3243 0.639039 10.4493 0.930705 10.45 1.26337C10.4507 1.59604 10.3257 1.88771 10.075 2.13837L2.725 9.48837Z" fill="#22d3ee"/>
</svg>
