<svg width="11" height="19" viewBox="0 0 11 19" fill="none" xmlns="http://www.w3.org/2000/svg">
<path d="M7.72495 9.475L0.37495 2.125C0.12495 1.875 0.00394897 1.58333 0.0119489 1.25C0.0199489 0.916666 0.149283 0.624999 0.399949 0.374999C0.650616 0.124999 0.942283 -1.07616e-06 1.27495 -1.10524e-06C1.60762 -1.13433e-06 1.89928 0.124999 2.14995 0.374999L9.84995 8.05C10.0499 8.25 10.2 8.475 10.3 8.725C10.4 8.975 10.45 9.225 10.45 9.475C10.45 9.725 10.4 9.975 10.3 10.225C10.2 10.475 10.05 10.7 9.84995 10.9L2.14995 18.6C1.89995 18.85 1.60395 18.971 1.26195 18.963C0.91995 18.955 0.624285 18.8257 0.374951 18.575C0.125618 18.3243 0.000617948 18.0327 -4.87478e-05 17.7C-0.000715444 17.3673 0.124285 17.0757 0.374951 16.825L7.72495 9.475Z" fill="#22d3ee"/>
</svg>
