<svg width="308" height="302" viewBox="0 0 308 302" fill="none" xmlns="http://www.w3.org/2000/svg">
<circle cx="153.5" cy="151.5" r="103.5" fill="#8C9BD8" fill-opacity="0.19"/>
<g clip-path="url(#clip0_71_149)">
<rect x="47.875" y="152.625" width="19.5" height="19.5" rx="2.625" fill="#101F6A" fill-opacity="0.75" stroke="white" stroke-width="0.75"/>
<rect x="47.875" y="230.625" width="19.5" height="19.5" rx="2.625" fill="#101F6A" fill-opacity="0.75" stroke="white" stroke-width="0.75"/>
<rect x="47.875" y="191.625" width="19.5" height="19.5" rx="2.625" fill="#101F6A" fill-opacity="0.75" stroke="white" stroke-width="0.75"/>
<rect x="47.875" y="172.125" width="19.5" height="19.5" rx="2.625" fill="#101F6A" fill-opacity="0.75" stroke="white" stroke-width="0.75"/>
<rect x="47.875" y="211.125" width="19.5" height="19.5" rx="2.625" fill="#101F6A" fill-opacity="0.75" stroke="white" stroke-width="0.75"/>
<rect x="67.375" y="152.625" width="19.5" height="19.5" rx="2.625" fill="#101F6A" fill-opacity="0.75" stroke="white" stroke-width="0.75"/>
<rect x="67.375" y="230.625" width="19.5" height="19.5" rx="2.625" fill="#101F6A" fill-opacity="0.75" stroke="white" stroke-width="0.75"/>
<rect x="67.375" y="191.625" width="19.5" height="19.5" rx="2.625" fill="#101F6A" fill-opacity="0.75" stroke="white" stroke-width="0.75"/>
<rect x="67.375" y="172.125" width="19.5" height="19.5" rx="2.625" fill="#101F6A" fill-opacity="0.75" stroke="white" stroke-width="0.75"/>
<rect x="67.375" y="211.125" width="19.5" height="19.5" rx="2.625" fill="#101F6A" fill-opacity="0.75" stroke="white" stroke-width="0.75"/>
<rect x="95.125" y="142.875" width="19.5" height="19.5" rx="2.625" fill="#101F6A" fill-opacity="0.75" stroke="white" stroke-width="0.75"/>
<rect x="86.875" y="230.625" width="19.5" height="19.5" rx="2.625" fill="#101F6A" fill-opacity="0.75" stroke="white" stroke-width="0.75"/>
<rect x="86.875" y="191.625" width="19.5" height="19.5" rx="2.625" fill="#101F6A" fill-opacity="0.75" stroke="white" stroke-width="0.75"/>
<rect x="89.125" y="168.375" width="19.5" height="19.5" rx="2.625" fill="#101F6A" fill-opacity="0.75" stroke="white" stroke-width="0.75"/>
<rect x="86.875" y="211.125" width="19.5" height="19.5" rx="2.625" fill="#101F6A" fill-opacity="0.75" stroke="white" stroke-width="0.75"/>
<rect x="119.875" y="142.125" width="19.5" height="19.5" rx="2.625" fill="#101F6A" fill-opacity="0.75" stroke="white" stroke-width="0.75"/>
<rect x="106.375" y="230.625" width="19.5" height="19.5" rx="2.625" fill="#101F6A" fill-opacity="0.75" stroke="white" stroke-width="0.75"/>
<rect x="109.375" y="188.625" width="19.5" height="19.5" rx="2.625" fill="#101F6A" fill-opacity="0.75" stroke="white" stroke-width="0.75"/>
<rect x="115.375" y="166.875" width="19.5" height="19.5" rx="2.625" fill="#101F6A" fill-opacity="0.75" stroke="white" stroke-width="0.75"/>
<rect x="106.375" y="211.125" width="19.5" height="19.5" rx="2.625" fill="#101F6A" fill-opacity="0.75" stroke="white" stroke-width="0.75"/>
<rect x="147.375" y="135.125" width="19.5" height="19.5" rx="2.625" fill="#101F6A" fill-opacity="0.75" stroke="white" stroke-width="0.75"/>
<rect x="125.875" y="230.625" width="19.5" height="19.5" rx="2.625" fill="#101F6A" fill-opacity="0.75" stroke="white" stroke-width="0.75"/>
<rect x="133.375" y="186.375" width="19.5" height="19.5" rx="2.625" fill="#101F6A" fill-opacity="0.75" stroke="white" stroke-width="0.75"/>
<rect x="143.875" y="161.625" width="19.5" height="19.5" rx="2.625" fill="#101F6A" fill-opacity="0.75" stroke="white" stroke-width="0.75"/>
<rect x="125.875" y="211.125" width="19.5" height="19.5" rx="2.625" fill="#101F6A" fill-opacity="0.75" stroke="white" stroke-width="0.75"/>
</g>
<rect x="256.125" y="146.375" width="19.5" height="19.5" rx="2.625" transform="rotate(-180 256.125 146.375)" fill="#101F6A" fill-opacity="0.75" stroke="#FCFCFC" stroke-width="0.75"/>
<rect x="256.125" y="68.375" width="19.5" height="19.5" rx="2.625" transform="rotate(-180 256.125 68.375)" fill="#101F6A" fill-opacity="0.75" stroke="#FCFCFC" stroke-width="0.75"/>
<rect x="256.125" y="107.375" width="19.5" height="19.5" rx="2.625" transform="rotate(-180 256.125 107.375)" fill="#101F6A" fill-opacity="0.75" stroke="#FCFCFC" stroke-width="0.75"/>
<rect x="256.125" y="126.875" width="19.5" height="19.5" rx="2.625" transform="rotate(-180 256.125 126.875)" fill="#101F6A" fill-opacity="0.75" stroke="#FCFCFC" stroke-width="0.75"/>
<rect x="256.125" y="87.875" width="19.5" height="19.5" rx="2.625" transform="rotate(-180 256.125 87.875)" fill="#101F6A" fill-opacity="0.75" stroke="#FCFCFC" stroke-width="0.75"/>
<rect x="236.625" y="146.375" width="19.5" height="19.5" rx="2.625" transform="rotate(-180 236.625 146.375)" fill="#101F6A" fill-opacity="0.75" stroke="#FCFCFC" stroke-width="0.75"/>
<rect x="236.625" y="68.375" width="19.5" height="19.5" rx="2.625" transform="rotate(-180 236.625 68.375)" fill="#101F6A" fill-opacity="0.75" stroke="#FCFCFC" stroke-width="0.75"/>
<rect x="236.625" y="107.375" width="19.5" height="19.5" rx="2.625" transform="rotate(-180 236.625 107.375)" fill="#101F6A" fill-opacity="0.75" stroke="#FCFCFC" stroke-width="0.75"/>
<rect x="236.625" y="126.875" width="19.5" height="19.5" rx="2.625" transform="rotate(-180 236.625 126.875)" fill="#101F6A" fill-opacity="0.75" stroke="#FCFCFC" stroke-width="0.75"/>
<rect x="236.625" y="87.875" width="19.5" height="19.5" rx="2.625" transform="rotate(-180 236.625 87.875)" fill="#101F6A" fill-opacity="0.75" stroke="#FCFCFC" stroke-width="0.75"/>
<rect x="217.125" y="68.375" width="19.5" height="19.5" rx="2.625" transform="rotate(-180 217.125 68.375)" fill="#101F6A" fill-opacity="0.75" stroke="#FCFCFC" stroke-width="0.75"/>
<rect x="217.125" y="107.375" width="19.5" height="19.5" rx="2.625" transform="rotate(-180 217.125 107.375)" fill="#101F6A" fill-opacity="0.75" stroke="#FCFCFC" stroke-width="0.75"/>
<rect x="214.875" y="130.625" width="19.5" height="19.5" rx="2.625" transform="rotate(-180 214.875 130.625)" fill="#101F6A" fill-opacity="0.75" stroke="#FCFCFC" stroke-width="0.75"/>
<rect x="217.125" y="87.875" width="19.5" height="19.5" rx="2.625" transform="rotate(-180 217.125 87.875)" fill="#101F6A" fill-opacity="0.75" stroke="#FCFCFC" stroke-width="0.75"/>
<rect x="197.625" y="68.375" width="19.5" height="19.5" rx="2.625" transform="rotate(-180 197.625 68.375)" fill="#101F6A" fill-opacity="0.75" stroke="#FCFCFC" stroke-width="0.75"/>
<rect x="194.625" y="110.375" width="19.5" height="19.5" rx="2.625" transform="rotate(-180 194.625 110.375)" fill="#101F6A" fill-opacity="0.75" stroke="#FCFCFC" stroke-width="0.75"/>
<rect x="188.625" y="132.125" width="19.5" height="19.5" rx="2.625" transform="rotate(-180 188.625 132.125)" fill="#101F6A" fill-opacity="0.75" stroke="#FCFCFC" stroke-width="0.75"/>
<rect x="197.625" y="87.875" width="19.5" height="19.5" rx="2.625" transform="rotate(-180 197.625 87.875)" fill="#101F6A" fill-opacity="0.75" stroke="#FCFCFC" stroke-width="0.75"/>
<rect x="178.125" y="68.375" width="19.5" height="19.5" rx="2.625" transform="rotate(-180 178.125 68.375)" fill="#101F6A" fill-opacity="0.75" stroke="#FCFCFC" stroke-width="0.75"/>
<rect x="170.625" y="112.625" width="19.5" height="19.5" rx="2.625" transform="rotate(-180 170.625 112.625)" fill="#101F6A" fill-opacity="0.75" stroke="#FCFCFC" stroke-width="0.75"/>
<rect x="178.125" y="87.875" width="19.5" height="19.5" rx="2.625" transform="rotate(-180 178.125 87.875)" fill="#101F6A" fill-opacity="0.75" stroke="#FCFCFC" stroke-width="0.75"/>
<path d="M308 151C308 234.395 239.052 302 154 302C68.9482 302 0 234.395 0 151C0 67.605 68.9482 0 154 0C239.052 0 308 67.605 308 151ZM53.0014 151C53.0014 205.693 98.22 250.031 154 250.031C209.78 250.031 254.999 205.693 254.999 151C254.999 96.3066 209.78 51.9689 154 51.9689C98.22 51.9689 53.0014 96.3066 53.0014 151Z" fill="#7B7FA5" fill-opacity="0.45"/>
<defs>
<clipPath id="clip0_71_149">
<rect width="135" height="135" fill="white" transform="translate(33.5 134.5)"/>
</clipPath>
</defs>
</svg>
