<svg width="188" height="97" viewBox="0 0 188 97" fill="none" xmlns="http://www.w3.org/2000/svg">
<rect width="188" height="89" rx="9" fill="white"/>
<g filter="url(#filter0_d_1_25)">
<path d="M25.32 29.232H26.376C29.704 29.232 32.488 30.128 34.728 31.92C37.032 33.712 38.184 36.56 38.184 40.464V78H37.608C36.136 78 34.664 77.808 33.192 77.424C31.784 77.04 30.472 76.432 29.256 75.6C28.104 74.704 27.144 73.584 26.376 72.24C25.672 70.832 25.32 69.104 25.32 67.056V29.232ZM57.096 37.68C57.096 39.472 56.744 40.912 56.04 42C55.336 43.088 54.472 43.952 53.448 44.592C52.488 45.168 51.432 45.552 50.28 45.744C49.128 45.936 48.136 46.032 47.304 46.032C46.408 46.032 45.64 45.968 45 45.84V42.384C45 40.912 44.744 39.984 44.232 39.6C43.784 39.216 43.208 39.024 42.504 39.024C41.864 39.024 41.352 39.152 40.968 39.408C40.648 39.664 40.264 40.048 39.816 40.56C39.624 40.048 39.496 39.536 39.432 39.024C39.432 38.448 39.432 37.904 39.432 37.392C39.432 36.56 39.56 35.664 39.816 34.704C40.136 33.744 40.616 32.88 41.256 32.112C41.96 31.28 42.856 30.608 43.944 30.096C45.032 29.52 46.408 29.232 48.072 29.232C51.144 29.232 53.416 30.064 54.888 31.728C56.36 33.328 57.096 35.312 57.096 37.68ZM74.8403 63.024C74.8403 63.792 74.8723 64.528 74.9363 65.232C75.0643 65.936 75.2563 66.576 75.5123 67.152C75.8323 67.664 76.2483 68.112 76.7603 68.496C77.3363 68.816 78.1043 68.976 79.0643 68.976C79.5763 68.976 80.0883 68.912 80.6003 68.784C81.1763 68.592 81.6883 68.304 82.1363 67.92C82.3923 68.432 82.5523 68.944 82.6163 69.456C82.6803 69.904 82.7123 70.384 82.7123 70.896C82.7123 72.944 81.8483 74.64 80.1203 75.984C78.3923 77.328 76.3123 78 73.8803 78C70.0403 78 67.0963 76.976 65.0483 74.928C63.0003 72.88 61.9763 70.32 61.9763 67.248V40.56C61.9763 38.448 62.3603 36.688 63.1283 35.28C63.9603 33.808 64.9843 32.624 66.2003 31.728C67.4803 30.832 68.8563 30.192 70.3282 29.808C71.8643 29.424 73.3683 29.232 74.8403 29.232V63.024ZM96.7283 66.672C96.7283 68.912 96.3123 70.768 95.4803 72.24C94.7123 73.648 93.6883 74.8 92.4083 75.696C91.1923 76.528 89.8163 77.136 88.2803 77.52C86.7443 77.84 85.2723 78 83.8643 78V44.208C83.8643 43.44 83.8003 42.704 83.6723 42C83.6083 41.296 83.4163 40.688 83.0963 40.176C82.8403 39.6 82.4243 39.152 81.8483 38.832C81.3363 38.448 80.6003 38.256 79.6403 38.256C79.1283 38.256 78.5843 38.352 78.0083 38.544C77.4963 38.672 77.0163 38.928 76.5683 39.312C76.3123 38.8 76.1523 38.32 76.0883 37.872C76.0243 37.36 75.9923 36.848 75.9923 36.336C75.9923 34.288 76.8563 32.592 78.5843 31.248C80.3123 29.904 82.3923 29.232 84.8243 29.232C88.6643 29.232 91.6083 30.224 93.6563 32.208C95.7043 34.128 96.7283 36.912 96.7283 40.56V66.672ZM118.247 63.024C118.247 63.792 118.279 64.528 118.343 65.232C118.471 65.936 118.663 66.576 118.919 67.152C119.239 67.664 119.655 68.112 120.167 68.496C120.743 68.816 121.511 68.976 122.471 68.976C122.983 68.976 123.495 68.912 124.007 68.784C124.583 68.592 125.095 68.304 125.543 67.92C125.799 68.432 125.959 68.944 126.023 69.456C126.087 69.904 126.119 70.384 126.119 70.896C126.119 72.944 125.255 74.64 123.527 75.984C121.799 77.328 119.719 78 117.287 78C113.447 78 110.503 76.976 108.455 74.928C106.407 72.88 105.383 70.32 105.383 67.248V40.56C105.383 38.448 105.767 36.688 106.535 35.28C107.367 33.808 108.391 32.624 109.607 31.728C110.887 30.832 112.263 30.192 113.734 29.808C115.271 29.424 116.775 29.232 118.247 29.232V63.024ZM140.135 66.672C140.135 68.912 139.719 70.768 138.887 72.24C138.119 73.648 137.095 74.8 135.815 75.696C134.599 76.528 133.223 77.136 131.687 77.52C130.151 77.84 128.679 78 127.271 78V44.208C127.271 43.44 127.207 42.704 127.079 42C127.015 41.296 126.823 40.688 126.503 40.176C126.247 39.6 125.831 39.152 125.255 38.832C124.743 38.448 124.007 38.256 123.047 38.256C122.535 38.256 121.991 38.352 121.415 38.544C120.903 38.672 120.423 38.928 119.975 39.312C119.719 38.8 119.559 38.32 119.495 37.872C119.431 37.36 119.399 36.848 119.399 36.336C119.399 34.288 120.263 32.592 121.991 31.248C123.719 29.904 125.799 29.232 128.231 29.232C132.071 29.232 135.015 30.224 137.063 32.208C139.111 34.128 140.135 36.912 140.135 40.56V66.672ZM148.789 8.304H149.845C153.173 8.304 155.957 9.2 158.197 10.992C160.501 12.784 161.653 15.632 161.653 19.536V78H161.077C159.605 78 158.133 77.808 156.661 77.424C155.253 77.04 153.941 76.432 152.725 75.6C151.573 74.704 150.613 73.584 149.845 72.24C149.141 70.832 148.789 69.104 148.789 67.056V8.304Z" fill="url(#paint0_linear_1_25)"/>
</g>
<defs>
<filter id="filter0_d_1_25" x="21.32" y="8.30399" width="144.333" height="77.696" filterUnits="userSpaceOnUse" color-interpolation-filters="sRGB">
<feFlood flood-opacity="0" result="BackgroundImageFix"/>
<feColorMatrix in="SourceAlpha" type="matrix" values="0 0 0 0 0 0 0 0 0 0 0 0 0 0 0 0 0 0 127 0" result="hardAlpha"/>
<feOffset dy="4"/>
<feGaussianBlur stdDeviation="2"/>
<feComposite in2="hardAlpha" operator="out"/>
<feColorMatrix type="matrix" values="0 0 0 0 0 0 0 0 0 0 0 0 0 0 0 0 0 0 0.25 0"/>
<feBlend mode="normal" in2="BackgroundImageFix" result="effect1_dropShadow_1_25"/>
<feBlend mode="normal" in="SourceGraphic" in2="effect1_dropShadow_1_25" result="shape"/>
</filter>
<linearGradient id="paint0_linear_1_25" x1="93.5" y1="6" x2="93.5" y2="102" gradientUnits="userSpaceOnUse">
<stop stop-color="#FF1E1E"/>
<stop offset="1" stop-color="#2200FF"/>
</linearGradient>
</defs>
</svg>
