<svg width="145" height="78" viewBox="0 0 145 78" fill="none" xmlns="http://www.w3.org/2000/svg">
<g filter="url(#filter0_d_1_22)">
<path d="M4 20.928H5.056C8.384 20.928 11.168 21.824 13.408 23.616C15.712 25.408 16.864 28.256 16.864 32.16V69.696H16.288C14.816 69.696 13.344 69.504 11.872 69.12C10.464 68.736 9.152 68.128 7.936 67.296C6.784 66.4 5.824 65.28 5.056 63.936C4.352 62.528 4 60.8 4 58.752V20.928ZM35.776 29.376C35.776 31.168 35.424 32.608 34.72 33.696C34.016 34.784 33.152 35.648 32.128 36.288C31.168 36.864 30.112 37.248 28.96 37.44C27.808 37.632 26.816 37.728 25.984 37.728C25.088 37.728 24.32 37.664 23.68 37.536V34.08C23.68 32.608 23.424 31.68 22.912 31.296C22.464 30.912 21.888 30.72 21.184 30.72C20.544 30.72 20.032 30.848 19.648 31.104C19.328 31.36 18.944 31.744 18.496 32.256C18.304 31.744 18.176 31.232 18.112 30.72C18.112 30.144 18.112 29.6 18.112 29.088C18.112 28.256 18.24 27.36 18.496 26.4C18.816 25.44 19.296 24.576 19.936 23.808C20.64 22.976 21.536 22.304 22.624 21.792C23.712 21.216 25.088 20.928 26.752 20.928C29.824 20.928 32.096 21.76 33.568 23.424C35.04 25.024 35.776 27.008 35.776 29.376ZM53.5203 54.72C53.5203 55.488 53.5523 56.224 53.6163 56.928C53.7443 57.632 53.9363 58.272 54.1923 58.848C54.5123 59.36 54.9283 59.808 55.4403 60.192C56.0163 60.512 56.7843 60.672 57.7443 60.672C58.2563 60.672 58.7683 60.608 59.2803 60.48C59.8563 60.288 60.3683 60 60.8163 59.616C61.0723 60.128 61.2323 60.64 61.2963 61.152C61.3603 61.6 61.3923 62.08 61.3923 62.592C61.3923 64.64 60.5283 66.336 58.8003 67.68C57.0723 69.024 54.9923 69.696 52.5603 69.696C48.7203 69.696 45.7763 68.672 43.7283 66.624C41.6803 64.576 40.6563 62.016 40.6563 58.944V32.256C40.6563 30.144 41.0403 28.384 41.8083 26.976C42.6403 25.504 43.6643 24.32 44.8803 23.424C46.1603 22.528 47.5363 21.888 49.0083 21.504C50.5443 21.12 52.0483 20.928 53.5203 20.928V54.72ZM75.4083 58.368C75.4083 60.608 74.9923 62.464 74.1603 63.936C73.3923 65.344 72.3683 66.496 71.0883 67.392C69.8723 68.224 68.4963 68.832 66.9603 69.216C65.4243 69.536 63.9523 69.696 62.5443 69.696V35.904C62.5443 35.136 62.4803 34.4 62.3523 33.696C62.2883 32.992 62.0963 32.384 61.7763 31.872C61.5203 31.296 61.1043 30.848 60.5283 30.528C60.0163 30.144 59.2803 29.952 58.3203 29.952C57.8083 29.952 57.2643 30.048 56.6883 30.24C56.1763 30.368 55.6963 30.624 55.2483 31.008C54.9923 30.496 54.8323 30.016 54.7683 29.568C54.7043 29.056 54.6723 28.544 54.6723 28.032C54.6723 25.984 55.5363 24.288 57.2643 22.944C58.9923 21.6 61.0723 20.928 63.5043 20.928C67.3443 20.928 70.2883 21.92 72.3363 23.904C74.3843 25.824 75.4083 28.608 75.4083 32.256V58.368ZM96.9265 54.72C96.9265 55.488 96.9585 56.224 97.0225 56.928C97.1505 57.632 97.3425 58.272 97.5985 58.848C97.9185 59.36 98.3345 59.808 98.8465 60.192C99.4225 60.512 100.191 60.672 101.151 60.672C101.663 60.672 102.175 60.608 102.687 60.48C103.263 60.288 103.775 60 104.223 59.616C104.479 60.128 104.639 60.64 104.703 61.152C104.767 61.6 104.799 62.08 104.799 62.592C104.799 64.64 103.935 66.336 102.207 67.68C100.479 69.024 98.3985 69.696 95.9665 69.696C92.1265 69.696 89.1825 68.672 87.1345 66.624C85.0865 64.576 84.0625 62.016 84.0625 58.944V32.256C84.0625 30.144 84.4465 28.384 85.2145 26.976C86.0465 25.504 87.0705 24.32 88.2865 23.424C89.5665 22.528 90.9425 21.888 92.4145 21.504C93.9505 21.12 95.4545 20.928 96.9265 20.928V54.72ZM118.815 58.368C118.815 60.608 118.399 62.464 117.567 63.936C116.799 65.344 115.775 66.496 114.495 67.392C113.279 68.224 111.903 68.832 110.367 69.216C108.831 69.536 107.359 69.696 105.951 69.696V35.904C105.951 35.136 105.887 34.4 105.759 33.696C105.695 32.992 105.503 32.384 105.183 31.872C104.927 31.296 104.511 30.848 103.935 30.528C103.423 30.144 102.687 29.952 101.727 29.952C101.215 29.952 100.671 30.048 100.095 30.24C99.5825 30.368 99.1025 30.624 98.6545 31.008C98.3985 30.496 98.2385 30.016 98.1745 29.568C98.1105 29.056 98.0785 28.544 98.0785 28.032C98.0785 25.984 98.9425 24.288 100.671 22.944C102.399 21.6 104.479 20.928 106.911 20.928C110.751 20.928 113.695 21.92 115.743 23.904C117.791 25.824 118.815 28.608 118.815 32.256V58.368ZM127.469 -1.90735e-06H128.525C131.853 -1.90735e-06 134.637 0.895998 136.877 2.688C139.181 4.48 140.333 7.328 140.333 11.232V69.696H139.757C138.285 69.696 136.813 69.504 135.341 69.12C133.933 68.736 132.621 68.128 131.405 67.296C130.253 66.4 129.293 65.28 128.525 63.936C127.821 62.528 127.469 60.8 127.469 58.752V-1.90735e-06Z" fill="url(#paint0_linear_1_22)"/>
</g>
<defs>
<filter id="filter0_d_1_22" x="0" y="0" width="144.333" height="77.696" filterUnits="userSpaceOnUse" color-interpolation-filters="sRGB">
<feFlood flood-opacity="0" result="BackgroundImageFix"/>
<feColorMatrix in="SourceAlpha" type="matrix" values="0 0 0 0 0 0 0 0 0 0 0 0 0 0 0 0 0 0 127 0" result="hardAlpha"/>
<feOffset dy="4"/>
<feGaussianBlur stdDeviation="2"/>
<feComposite in2="hardAlpha" operator="out"/>
<feColorMatrix type="matrix" values="0 0 0 0 0 0 0 0 0 0 0 0 0 0 0 0 0 0 0.25 0"/>
<feBlend mode="normal" in2="BackgroundImageFix" result="effect1_dropShadow_1_22"/>
<feBlend mode="normal" in="SourceGraphic" in2="effect1_dropShadow_1_22" result="shape"/>
</filter>
<linearGradient id="paint0_linear_1_22" x1="72.18" y1="-2.304" x2="72.18" y2="93.696" gradientUnits="userSpaceOnUse">
<stop stop-color="#FF1E1E"/>
<stop offset="1" stop-color="#2200FF"/>
</linearGradient>
</defs>
</svg>
